<svg xmlns="http://www.w3.org/2000/svg" viewBox="0 0 2340 740" role="img" aria-label="srbf">
  <g transform="translate(0,730) scale(1,-1)">
    <path fill="#8b8bff" d="M278.0 -9Q183.0 -9 129.0 34.0Q75.0 77 75.0 154H182.0Q182.0 119 207.0 99.5Q232.0 80 278.0 80H322.0Q369.0 80 395.0 99.5Q421.0 119 421.0 155Q421.0 218 354.0 227L209.0 247Q148.0 255 114.5 295.5Q81.0 336 81.0 401Q81.0 476 132.0 517.5Q183.0 559 276.0 559H321.0Q407.0 559 460.5 518.0Q514.0 477 517.0 410H409.0Q407.0 437 383.5 454.5Q360.0 472 321.0 472H276.0Q233.0 472 209.5 453.0Q186.0 434 186.0 402Q186.0 351 243.0 343L379.0 325Q526.0 305 526.0 156Q526.0 77 473.0 34.0Q420.0 -9 322.0 -9Z M684.0 0V550H791.0V442Q799.0 497 838.0 528.5Q877.0 560 941.0 560Q1026.0 560 1073.0 507.0Q1120.0 454 1120.0 358V309H1012.0V355Q1012.0 466 903.0 466Q849.0 466 820.5 434.5Q792.0 403 792.0 343V0Z M1501.0 -10Q1441.0 -10 1401.5 20.0Q1362.0 50 1351.0 104V0H1244.0V730H1352.0V573L1349.0 446Q1361.0 499 1401.5 529.5Q1442.0 560 1501.0 560Q1583.0 560 1632.0 504.0Q1681.0 448 1681.0 352V197Q1681.0 102 1632.0 46.0Q1583.0 -10 1501.0 -10ZM1463.0 84Q1515.0 84 1544.0 111.5Q1573.0 139 1573.0 200V351Q1573.0 411 1544.0 438.5Q1515.0 466 1463.0 466Q1411.0 466 1381.5 434.5Q1352.0 403 1352.0 346V205Q1352.0 147 1381.5 115.5Q1411.0 84 1463.0 84Z M1948.0 0V377H1792.0V475H1948.0V581Q1948.0 650 1992.0 690.0Q2036.0 730 2112.0 730H2273.0V634H2114.0Q2056.0 634 2056.0 580V475H2273.0V377H2056.0V0Z"/>
  </g>
</svg>
